<svg id="Nov" xmlns="http://www.w3.org/2000/svg" viewBox="0 0 449.43 359.6"><defs><style>.cls-1{fill:#45a2f8;}</style></defs><path class="cls-1" d="M44.06,280.27a32,32,0,0,1,20.73,7.05l-4.39,8.26a27.47,27.47,0,0,0-16.25-5.51c-13.68,0-21.67,9.55-21.67,21.25s8,21.24,21.67,21.24a26.88,26.88,0,0,0,16.25-5.51l4.39,8.35a32,32,0,0,1-20.73,7c-20.38,0-32.85-14.28-32.85-31S23.68,280.27,44.06,280.27Z"/><path class="cls-1" d="M73,341.41V279.24H83.62v62.17Z"/><path class="cls-1" d="M116.39,297c12.73,0,23.65,10.24,23.65,22.71s-10.92,22.7-23.65,22.7c-12.56,0-23.57-10.06-23.57-22.7S103.83,297,116.39,297Zm0,36.38c7.39,0,13-6,13-13.67s-5.59-13.68-13-13.68-12.9,6-12.9,13.68S109.08,333.33,116.39,333.33Z"/><path class="cls-1" d="M189.23,341.41H178.65v-7.3c-2.75,5.67-7.83,8.25-14,8.25-10.83,0-16.16-7.83-16.16-20.38V297.9H159v24c0,7.06,2.76,11.18,8.43,11.18,4.9,0,11.18-4,11.18-16.34V297.9h10.58Z"/><path class="cls-1" d="M245.21,279.24v62.17H234.64v-6.53c-3.19,4.73-8.6,7.48-15,7.48-12.81,0-21.24-10.15-21.24-22.87,0-12.3,8-22.54,21.33-22.54a17.88,17.88,0,0,1,14.88,7.4V279.24Zm-23.3,54.26c7.22,0,12.9-4.9,12.9-13.5,0-8.43-5.33-14.19-13.25-14.19s-12.47,6.28-12.47,13.76C209.09,327.31,214,333.5,221.91,333.5Z"/><path class="cls-1" d="M291.82,341.41h-11V281.22h11Z"/><path class="cls-1" d="M300.34,341.41l23.22-60.19H335l23.39,60.19H347.12l-4.56-11.78H316.08l-4.39,11.78Zm29-49-10.15,28.29h20.21Z"/><path class="cls-1" d="M396,340.73l-17.2-41.37-3.61,42.05h-11l5.59-60.19h11.52l18.49,44.28,18.41-44.28h11.52l5.68,60.19h-11l-3.7-42.05-17.2,41.37Z"/><path class="cls-1" d="M388.55,170.94c0,.64.05,1.29.05,1.94a83.45,83.45,0,0,1-83.33,83.36l-225-1.18a58.62,58.62,0,1,1,7.19-116.78l4.64.56.87-4.59A101.63,101.63,0,0,1,273.65,92l2.16,2.83,3.38-1.11a83.24,83.24,0,0,1,18-3.77c-.88-3.33-1.67-6.61-2.4-9.81a92.79,92.79,0,0,0-15.38,3A111.64,111.64,0,0,0,84,127.94c-1.29-.08-2.57-.12-3.82-.12a68.62,68.62,0,0,0,0,137.24l225.05,1.18a93.34,93.34,0,0,0,92.86-103A83.31,83.31,0,0,1,388.55,170.94Z"/><path class="cls-1" d="M367.19,172.3l-1.47-.45c-26.65-8.22-47-34-58.93-74.44a265.19,265.19,0,0,1-10-58.15l-.22-5.51,5.5.32c.33,0,34.53,1.59,61.84-22.21L367.19,9l3.29,2.86c27.3,23.8,61.5,22.23,61.84,22.21l5.48-.3-.21,5.49a265.19,265.19,0,0,1-10,58.15c-11.9,40.48-32.27,66.22-58.93,74.44ZM307.14,44c1.79,21.27,11.7,101.34,60.05,117.77,48.35-16.43,58.26-96.5,60.05-117.77-11.2-.44-37-3.58-60.05-21.9C344.15,40.46,318.34,43.6,307.14,44Z"/><path class="cls-1" d="M373.58,90.73a22.32,22.32,0,1,0-9.32.42v44.7h9.32V130h11v-9.32h-11V116h11v-9.32h-11Zm-18-21.58a12.31,12.31,0,1,1,12.3,12.31A12.32,12.32,0,0,1,355.62,69.15Z"/></svg>